<svg xmlns="http://www.w3.org/2000/svg" viewBox="0 0 100 83.9"><defs><style>.cls-1,.cls-2{fill:#fff;}.cls-1{opacity:0;}.cls-3{fill:#00386a;}</style></defs><title>list_3</title><g id="Слой_2" data-name="Слой 2"><g id="Слой_2-2" data-name="Слой 2"><rect class="cls-1" width="100" height="83.9"/><rect class="cls-2" x="25.56" y="7.89" width="49" height="67"/><path class="cls-3" d="M75.17,77.32H24.83A1.79,1.79,0,0,1,23,75.53V8.37a1.79,1.79,0,0,1,1.79-1.79H75.17A1.79,1.79,0,0,1,77,8.37V75.53A1.79,1.79,0,0,1,75.17,77.32ZM26.63,73.74H73.37V10.16H26.63Z"/><path class="cls-3" d="M35.67,26.89a1.16,1.16,0,0,1-.84-.35l-2.19-2.19a1.19,1.19,0,0,1,1.68-1.69L35.67,24l4.9-4.89a1.19,1.19,0,0,1,1.69,0,1.21,1.21,0,0,1,0,1.69l-5.74,5.73A1.18,1.18,0,0,1,35.67,26.89Z"/><path class="cls-3" d="M35.67,45.75a1.16,1.16,0,0,1-.84-.35l-2.19-2.19a1.19,1.19,0,0,1,1.68-1.69l1.35,1.35L40.57,38a1.19,1.19,0,0,1,1.69,0,1.21,1.21,0,0,1,0,1.69L36.52,45.4A1.18,1.18,0,0,1,35.67,45.75Z"/><path class="cls-3" d="M35.67,64.61a1.19,1.19,0,0,1-.84-.34l-2.19-2.2a1.19,1.19,0,0,1,1.68-1.69l1.35,1.35,4.9-4.89a1.19,1.19,0,0,1,1.69,0,1.21,1.21,0,0,1,0,1.69l-5.74,5.74A1.21,1.21,0,0,1,35.67,64.61Z"/><path class="cls-3" d="M66.75,21.32H49.32a1.2,1.2,0,0,1,0-2.39H66.75a1.2,1.2,0,1,1,0,2.39Z"/><path class="cls-3" d="M60.78,26.81H49.32a1.2,1.2,0,0,1,0-2.39H60.78a1.2,1.2,0,1,1,0,2.39Z"/><path class="cls-3" d="M66.75,40.18H49.32a1.2,1.2,0,0,1,0-2.39H66.75a1.2,1.2,0,1,1,0,2.39Z"/><path class="cls-3" d="M60.78,45.67H49.32a1.2,1.2,0,0,1,0-2.39H60.78a1.2,1.2,0,1,1,0,2.39Z"/><path class="cls-3" d="M66.75,59H49.32a1.2,1.2,0,0,1,0-2.39H66.75a1.2,1.2,0,1,1,0,2.39Z"/><path class="cls-3" d="M60.78,64.53H49.32a1.2,1.2,0,0,1,0-2.39H60.78a1.2,1.2,0,1,1,0,2.39Z"/></g></g></svg>