<svg xmlns="http://www.w3.org/2000/svg" viewBox="0 0 100 83.9"><defs><style>.cls-1,.cls-2{fill:#fff;}.cls-1{opacity:0;}.cls-3{fill:#00386a;}</style></defs><title>pack_1</title><g id="Слой_2" data-name="Слой 2"><g id="Слой_2-2" data-name="Слой 2"><rect class="cls-1" width="100" height="83.9"/><polyline class="cls-2" points="13.85 39.35 27.85 29.35 36.66 32.41 46.85 31.35 40.85 24.35 41.85 23.35 44.85 23.35 45.85 15.35 45.85 6.35 55.85 6.35 55.85 21.35 56.85 22.35 58.85 23.35 60.85 23.35 53.85 32.35 63.85 32.35 72.85 29.35 86.85 40.35 75.85 44.35 75.85 77.35 25.85 77.35 24.85 43.35"/><path class="cls-3" d="M36.16,67.78h-5a1.22,1.22,0,0,1,0-2.44h5a1.22,1.22,0,1,1,0,2.44Z"/><path class="cls-3" d="M40.71,72.5H31.12a1.22,1.22,0,0,1,0-2.44h9.59a1.22,1.22,0,1,1,0,2.44Z"/><path class="cls-3" d="M76.19,78.94h-51A1.21,1.21,0,0,1,24,77.72V43.91a1.22,1.22,0,0,1,2.44,0V76.5H75V43.91a1.22,1.22,0,0,1,2.44,0V77.72A1.22,1.22,0,0,1,76.19,78.94Z"/><path class="cls-3" d="M76.19,45.13h-51A1.22,1.22,0,0,1,24.36,43L37.64,31.32a1.24,1.24,0,0,1,.8-.3H47a1.22,1.22,0,0,1,0,2.44H38.9L28.4,42.69H73l-10.5-9.23h-8.9a1.22,1.22,0,0,1,0-2.44h9.36a1.24,1.24,0,0,1,.8.3L77,43a1.22,1.22,0,0,1-.8,2.14Z"/><path class="cls-3" d="M76.19,45.13a1.22,1.22,0,0,1-.33-2.4l9.42-2.59L73.14,30.47l-9.87,2.9A1.22,1.22,0,0,1,62.58,31L73.06,28a1.23,1.23,0,0,1,1.11.22L88.68,39.73a1.21,1.21,0,0,1-.44,2.13L76.51,45.09A1.22,1.22,0,0,1,76.19,45.13Z"/><path class="cls-3" d="M24.27,45.13a1.32,1.32,0,0,1-.39-.06L11.69,41a1.22,1.22,0,0,1-.31-2.16L26.56,28.13A1.25,1.25,0,0,1,27.62,28L37.88,31a1.22,1.22,0,0,1-.71,2.34l-9.69-2.91-12.73,9,9.9,3.29a1.24,1.24,0,0,1,.78,1.55A1.22,1.22,0,0,1,24.27,45.13Z"/><path class="cls-3" d="M50.45,37.2a1.23,1.23,0,0,1-.94-.45L38.88,23.65a1.23,1.23,0,0,1-.16-1.3,1.25,1.25,0,0,1,1.11-.69h4.5V6.18a1.22,1.22,0,1,1,2.44,0v16.7a1.22,1.22,0,0,1-1.22,1.22H42.39L50.45,34l8.07-9.94H55.93a1.22,1.22,0,0,1-1.22-1.22V6.18a1.22,1.22,0,0,1,2.44,0V21.66h3.93a1.22,1.22,0,0,1,1,2L51.4,36.75A1.24,1.24,0,0,1,50.45,37.2Z"/></g></g></svg>