<svg xmlns="http://www.w3.org/2000/svg" viewBox="0 0 100 83.9"><defs><style>.cls-1,.cls-2{fill:#fff;}.cls-1{opacity:0;}.cls-3{fill:#00386a;}</style></defs><title>give_1</title><g id="Слой_2" data-name="Слой 2"><g id="Слой_2-2" data-name="Слой 2"><rect class="cls-1" width="100" height="83.9"/><rect class="cls-2" x="23.94" y="7.17" width="52" height="36"/><path class="cls-2" d="M13.94,60.17l1,17,18-6,15,4,18-1s11-4,13-5,8-5,8-5l-2-3-9,2-9,4-12-3-6-2v-2h4l10,2,3-2v-4l-17-4-16,4-19,3Z"/><path class="cls-3" d="M34.37,35.17H29.26a1.24,1.24,0,1,1,0-2.47h5.11a1.24,1.24,0,0,1,0,2.47Z"/><path class="cls-3" d="M39.15,39H29.26a1.24,1.24,0,1,1,0-2.47h9.89a1.24,1.24,0,0,1,0,2.47Z"/><path class="cls-3" d="M76.18,45.31H23a1.23,1.23,0,0,1-1.23-1.23V6.76A1.23,1.23,0,0,1,23,5.53H76.18a1.23,1.23,0,0,1,1.24,1.23V44.08A1.23,1.23,0,0,1,76.18,45.31Zm-51.9-2.47H75V8H24.28Z"/><path class="cls-3" d="M55.08,22H44.15a1.25,1.25,0,0,1-1.24-1.24V6.76a1.24,1.24,0,0,1,2.47,0V19.47h8.46V6.76a1.24,1.24,0,0,1,2.47,0v14A1.24,1.24,0,0,1,55.08,22Z"/><path class="cls-3" d="M14.34,78.37A1.24,1.24,0,0,1,14,76l18.8-5.58a1.3,1.3,0,0,1,.65,0c4.67,1.16,12.39,3,13.21,3.12s8.81,0,20.71-.22A3.53,3.53,0,0,0,68.68,73l15.95-7.64.1,0a1.66,1.66,0,0,0,1-2,1.58,1.58,0,0,0-.83-.94,1.6,1.6,0,0,0-1.25-.06l-15.57,5.9,0,0a3.11,3.11,0,0,1-1,.14,3,3,0,0,1-.69-.07L49.82,64.59a3.21,3.21,0,0,1-2-1.42,3.15,3.15,0,0,1-.41-2.41,3.19,3.19,0,0,1,3.83-2.4l5.69,1.3,5.16,1.17a2.18,2.18,0,0,0,2.61-1.72A2.23,2.23,0,0,0,63,56.58L49.06,53.44a2,2,0,0,0-.74,0h-.19c-2.81,0-12.17,3.66-15.55,5.07a1.06,1.06,0,0,1-.35.09l-19.18,2a1.24,1.24,0,1,1-.26-2.46l19-2c1.89-.78,12.57-5.15,16.3-5.19a4.57,4.57,0,0,1,1.52.08l13.9,3.14a4.73,4.73,0,0,1,3.62,5.41,4.64,4.64,0,0,1-5.58,3.67l-5.17-1.17-5.7-1.3a.72.72,0,1,0-.32,1.4l16.56,3.68h.35L82.81,60a4.08,4.08,0,0,1,5.3,2.53,4.09,4.09,0,0,1-2.46,5.11L69.71,75.25l-.07,0a6.35,6.35,0,0,1-2.24.46c-6,.09-19.94.3-21,.21S35.81,73.5,33.17,72.84L14.7,78.32A1.49,1.49,0,0,1,14.34,78.37Z"/></g></g></svg>