<?xml version="1.0" encoding="utf-8"?>
<!-- Generator: Adobe Illustrator 25.0.1, SVG Export Plug-In . SVG Version: 6.00 Build 0)  -->
<svg version="1.1" id="Слой_1" xmlns="http://www.w3.org/2000/svg" x="0px" y="0px"
	 viewBox="0 0 120 120" style="enable-background:new 0 0 120 120;" xml:space="preserve">
<style type="text/css">
	.st0{fill:#1B3C6A;}
	.st1{fill:#49C8F5;}
	.st2{fill:#F04F38;}
</style>
<g>
	<path class="st0" d="M116.8,42.7c1.1-2,1.8-4.5,1.8-7.3c0-3.6-1.1-7.5-3.4-10.7l-2-3l-3.4,1.1c-2.3,0.7-6.8,1.4-10.5,1.4
		c-3.4,0-6.8-0.5-10.7-1.1c-4.3-0.7-8.9-1.4-13.6-1.4c-2.7,0-7,0.2-10.7,2c-4.5,2.3-7.6,6.4-7.6,12.1c0,3.2,0.7,5.2,0.9,5.9
		c-3.4,0.7-5.4,2.2-7,3.8c-2.7-3.2-6.2-4.6-10.3-4.6c-5.5,0-9.5,3.1-12.9,5.4c-2-2-5-3.4-8.6-3.4c-3.9,0-7.7,0.7-11.6,2l-4.3,1.4
		L4,50.6c2,7.5,0.7,17.7-0.5,26.1c-0.5,4.1-0.9,7.7-0.9,10.5C2.7,97.9,10.2,99,13.4,99s6.6-0.9,10-1.8l4.8-1.4
		c2.5,2.7,6.1,3.2,8,3.2c3,0,6.6-0.9,10-1.8l4.5-1.4c2,2,3.8,3.4,8.4,3.2c4.6-0.3,9.4-1.4,11.9-2.7c1.2-0.8,0.6-0.4,1.2-0.8
		c3.2,2,4,3.6,12.1,3.5l0,0c2.5,0,5.5-0.2,9.1-0.9l3.9-0.7l0.1-4.4c0-1.1,0.1-2.6,0.2-4.9c0.5-10,1.6-29.9,2.7-38.7
		C106.9,50.8,112.8,49.4,116.8,42.7z"/>
	<path class="st1" d="M95.5,42.9c3,0.2,6.8,1.6,10.2,1.6c4.8,0,8-3.9,8-8.9c0-3-0.9-5.7-2.5-8c-3,0.9-8.2,1.6-12,1.6
		c-7.7,0-15.5-2.3-24.3-2.3c-5.5,0-13,0.9-13,9.3c0,2.7,0.9,5.2,2,7.5c4.8-1.8,10.5-1.8,15-1.8c-2,29.3-4.5,40.2-4.5,44.8
		c0,8.2,7,8.9,17.5,7C92.1,86.1,93.9,57.4,95.5,42.9L95.5,42.9z"/>
	<path class="st2" d="M67.7,92.4c-2-8.6,2.7-25.4,2.7-34.1c0-6.8-1.8-11.8-8-11.8s-11.1,4.1-14.1,8c0-4.5-3-8-7.5-8
		c-6.4,0-12,3.9-15.5,8c0-1.8-0.5-6.6-6.8-6.6c-2.7,0-6.1,0.5-10.2,1.8C11.5,62,7,79.7,7,87.4c0,8.4,5.9,7.7,14.5,5.2
		c0.2-7,1.6-17,2.7-23.4c0.7-4.3,2-8.9,5.9-8.9c2.3,0,2.5,1.6,2.5,3.4c0,4.3-2.7,20.2-2.7,23.6c0,8.4,5.7,7.7,14.5,5.2
		c0.2-5.9,1.8-17.5,2.7-23.4c0.7-5,2-8.9,5.5-8.9c2.3,0,2.5,1.8,2.5,3.4c0,4.3-2.7,20.2-2.7,23.6C52.2,95.6,59,94.9,67.7,92.4
		L67.7,92.4z"/>
</g>
<path class="st0" d="M150.4,4.3"/>
</svg>
